<svg width="22" height="18" viewBox="0 0 22 18" fill="none" xmlns="http://www.w3.org/2000/svg">
<path d="M19.6698 1.64345C19.1491 1.12243 18.5307 0.709119 17.8502 0.42713C17.1696 0.14514 16.4402 0 15.7035 0C14.9668 0 14.2374 0.14514 13.5568 0.42713C12.8763 0.709119 12.258 1.12243 11.7372 1.64345L10.6564 2.72425L9.57558 1.64345C8.52364 0.591517 7.09691 0.000545256 5.60924 0.000545267C4.12158 0.000545278 2.69485 0.591517 1.64291 1.64345C0.590972 2.69539 1.1084e-08 4.12212 0 5.60979C-1.1084e-08 7.09745 0.590972 8.52418 1.64291 9.57612L2.72371 10.6569L9.24216 17.1754C10.0232 17.9564 11.2895 17.9564 12.0706 17.1754L18.589 10.6569L19.6698 9.57612C20.1909 9.05534 20.6042 8.43701 20.8862 7.75646C21.1682 7.0759 21.3133 6.34645 21.3133 5.60979C21.3133 4.87312 21.1682 4.14368 20.8862 3.46312C20.6042 2.78256 20.1909 2.16423 19.6698 1.64345Z" fill="#FF65B4"/>
</svg>
